<?xml version="1.0" encoding="UTF-8"?>
<svg width="15px" height="10px" viewBox="0 0 15 10" version="1.1" xmlns="http://www.w3.org/2000/svg" xmlns:xlink="http://www.w3.org/1999/xlink">
    <!-- Generator: Sketch 43.1 (39012) - http://www.bohemiancoding.com/sketch -->
    <title>Icon</title>
    <desc>Created with Sketch.</desc>
    <defs></defs>
    <g id="Page-2" stroke="none" stroke-width="1" fill="none" fill-rule="evenodd">
        <g id="Arbuzz" transform="translate(-880.000000, -2602.000000)" fill="#FFFFFF">
            <g id="Footer" transform="translate(0.000000, 2512.000000)">
                <g id="Follow-us" transform="translate(730.000000, 47.000000)">
                    <g id="Behance" transform="translate(144.000000, 35.000000)">
                        <path d="M19.573,8.577 L15.735,8.577 L15.735,9.784 L19.572,9.784 L19.572,8.577 L19.573,8.577 L19.573,8.577 Z M19.191,13.441 L16.136,13.441 C16.136,13.441 16.336,11.929 17.773,11.929 C19.208,11.929 19.191,13.441 19.191,13.441 L19.191,13.441 L19.191,13.441 Z M17.736,10.494 C14.158,10.494 14.161,14.259 14.161,14.259 C14.161,14.259 13.916,18.006 17.736,18.006 C17.736,18.006 20.918,18.199 20.918,15.399 L19.282,15.399 C19.282,15.399 19.336,16.454 17.79,16.454 C17.79,16.454 16.153,16.569 16.153,14.749 L20.973,14.749 C20.974,14.75 21.501,10.494 17.736,10.494 L17.736,10.494 L17.736,10.494 Z M10.703,16.06 L8.133,16.06 L8.133,13.44 L10.84,13.44 C10.84,13.44 11.821,13.427 11.821,14.786 C11.821,15.933 11.089,16.052 10.703,16.06 L10.703,16.06 L10.703,16.06 Z M8.133,9.742 L10.84,9.742 C10.84,9.742 11.498,9.742 11.498,10.762 C11.498,11.782 11.111,11.929 10.672,11.929 L8.133,11.929 L8.133,9.742 L8.133,9.742 Z M12.053,12.476 C12.053,12.476 13.473,12.364 13.473,10.61 C13.473,8.856 12.311,8 10.84,8 L6,8 L6,17.803 L10.84,17.803 C10.84,17.803 13.794,17.9 13.794,14.91 C13.795,14.91 13.923,12.476 12.053,12.476 L12.053,12.476 L12.053,12.476 Z" id="Icon"></path>
                    </g>
                </g>
            </g>
        </g>
    </g>
</svg>