<?xml version="1.0" encoding="UTF-8"?>
<svg width="12px" height="12px" viewBox="0 0 12 12" version="1.1" xmlns="http://www.w3.org/2000/svg" xmlns:xlink="http://www.w3.org/1999/xlink">
    <!-- Generator: Sketch 43.1 (39012) - http://www.bohemiancoding.com/sketch -->
    <title>Icon</title>
    <desc>Created with Sketch.</desc>
    <defs></defs>
    <g id="Page-2" stroke="none" stroke-width="1" fill="none" fill-rule="evenodd">
        <g id="Arbuzz" transform="translate(-845.000000, -2601.000000)" fill="#FFFFFF">
            <g id="Footer" transform="translate(0.000000, 2512.000000)">
                <g id="Follow-us" transform="translate(730.000000, 47.000000)">
                    <g id="Dribbble" transform="translate(108.000000, 35.000000)">
                        <path d="M16.9668571,9.76685714 C16.8588571,9.91257143 16,11.014 14.1048571,11.7871429 C14.224,12.0314286 14.3388571,12.28 14.4451429,12.5302857 C14.4828571,12.6185714 14.5197143,12.7068571 14.5557143,12.7942857 C16.2605714,12.58 17.9551429,12.9237143 18.124,12.9588571 C18.1128571,11.7494286 17.6808571,10.6385714 16.9668571,9.76685714 M11.7991429,8.02514286 C11.9405714,8.21457143 12.8714286,9.48228571 13.7114286,11.0251429 C15.5337143,10.342 16.3051429,9.30571429 16.3968571,9.17371429 C15.4917143,8.37057143 14.302,7.88285714 13,7.88285714 C12.586,7.88285714 12.184,7.93257143 11.7991429,8.02514286 M7.98314286,11.9577143 C8.212,11.9611429 10.324,11.9705714 12.7214286,11.3337143 C11.872,9.82428571 10.9557143,8.55485714 10.8211429,8.36971429 C9.38714286,9.046 8.31571429,10.3677143 7.98314286,11.9577143 M9.19257143,16.4345714 C9.30828571,16.2357143 10.7148571,13.9068571 13.3582857,13.0522857 C13.4251429,13.0308571 13.4928571,13.0102857 13.5597143,12.9914286 C13.4311429,12.7 13.2914286,12.4085714 13.1448571,12.1214286 C10.5854286,12.8877143 8.10142857,12.856 7.87771429,12.8508571 C7.876,12.9031429 7.87514286,12.9545714 7.87514286,13.0077143 C7.87514286,14.3234286 8.374,15.526 9.19257143,16.4345714 M15.0014286,17.7254286 C14.9251429,17.2754286 14.6277143,15.7085714 13.9085714,13.8391429 C13.8974286,13.8425714 13.8862857,13.846 13.8751429,13.8502857 C10.984,14.8574286 9.946,16.8622857 9.85428571,17.0508571 C10.7234286,17.728 11.8154286,18.1325714 13,18.1325714 C13.7097143,18.1325714 14.3868571,17.9868571 15.0014286,17.7254286 M18.0597143,13.8211429 C17.8848571,13.7662857 16.474,13.3454286 14.8677143,13.6025714 C15.538,15.4437143 15.8105714,16.9445714 15.8628571,17.2557143 C17.0131429,16.4782857 17.8317143,15.2465714 18.0597143,13.8211429 M13,19 C9.69142857,19 7,16.3077143 7,13 C7,9.69142857 9.69142857,7 13,7 C16.3085714,7 19,9.69142857 19,13 C19,16.3077143 16.3085714,19 13,19" id="Icon"></path>
                    </g>
                </g>
            </g>
        </g>
    </g>
</svg>