<?xml version="1.0" encoding="UTF-8"?>
<svg width="12px" height="13px" viewBox="0 0 12 13" version="1.1" xmlns="http://www.w3.org/2000/svg" xmlns:xlink="http://www.w3.org/1999/xlink">
    <!-- Generator: Sketch 43.1 (39012) - http://www.bohemiancoding.com/sketch -->
    <title>Icon</title>
    <desc>Created with Sketch.</desc>
    <defs></defs>
    <g id="Page-2" stroke="none" stroke-width="1" fill="none" fill-rule="evenodd">
        <g id="Arbuzz" transform="translate(-773.000000, -2601.000000)" fill="#FFFFFF">
            <g id="Footer" transform="translate(0.000000, 2512.000000)">
                <g id="Follow-us" transform="translate(730.000000, 47.000000)">
                    <g id="Instagram" transform="translate(36.000000, 35.000000)">
                        <path d="M17.5001839,10.0039954 C17.5001839,10.4173993 17.1653158,10.7544488 16.7508212,10.7544488 L16.0003677,10.7544488 C15.5858731,10.7544488 15.2499143,10.4173993 15.2499143,10.0039954 L15.2499143,9.25245115 C15.2499143,8.83904729 15.5858731,8.50199769 16.0003677,8.50199769 L16.7508212,8.50199769 C17.1653158,8.50199769 17.5001839,8.83904729 17.5001839,9.25245115 L17.5001839,10.0039954 Z M17.5001839,16.7613488 C17.5001839,17.1769343 17.1653158,17.5128931 16.7508212,17.5128931 L9.25174046,17.5128931 C8.83615504,17.5128931 8.501287,17.1769343 8.501287,16.7613488 L8.501287,13.0069 C8.501287,12.5913146 8.83615504,12.2564465 9.25174046,12.2564465 L10.1079991,12.2564465 C10.0447342,12.4975079 10.0011031,12.7462047 10.0011031,13.0069 C10.0011031,14.6659693 11.3438476,16.0098046 13.0007354,16.0098046 C14.6576232,16.0098046 16.0003677,14.6659693 16.0003677,13.0069 C16.0003677,12.7462047 15.9556459,12.4975079 15.8934717,12.2564465 L16.7508212,12.2564465 C17.1653158,12.2564465 17.5001839,12.5913146 17.5001839,13.0069 L17.5001839,16.7613488 Z M13.0007354,11.5059931 C14.3816571,11.5059931 14.5005516,13.0069 14.5005516,13.0069 C14.5005516,13.0069 14.5452734,14.5088977 13.0007354,14.5088977 C11.4572883,14.5088977 11.5009193,13.0069 11.5009193,13.0069 C11.5009193,13.0069 11.6198138,11.5059931 13.0007354,11.5059931 L13.0007354,11.5059931 Z M17.5001839,7 L8.501287,7 C7.67338849,7 7.00147086,7.67300841 7.00147086,8.50199769 L7.00147086,17.5128931 C7.00147086,18.3418824 7.67338849,19.0138 8.501287,19.0138 L17.5001839,19.0138 C18.3280824,19.0138 19,18.3418824 19,17.5128931 L19,8.50199769 C19,7.67300841 18.3280824,7 17.5001839,7 L17.5001839,7 Z" id="Icon"></path>
                    </g>
                </g>
            </g>
        </g>
    </g>
</svg>