<?xml version="1.0" encoding="UTF-8"?>
<svg width="12px" height="10px" viewBox="0 0 12 10" version="1.1" xmlns="http://www.w3.org/2000/svg" xmlns:xlink="http://www.w3.org/1999/xlink">
    <!-- Generator: Sketch 43.1 (39012) - http://www.bohemiancoding.com/sketch -->
    <title>Icon</title>
    <desc>Created with Sketch.</desc>
    <defs></defs>
    <g id="Page-2" stroke="none" stroke-width="1" fill="none" fill-rule="evenodd">
        <g id="Arbuzz" transform="translate(-737.000000, -2602.000000)" fill="#FFFFFF">
            <g id="Footer" transform="translate(0.000000, 2512.000000)">
                <g id="Follow-us" transform="translate(730.000000, 47.000000)">
                    <g id="Twitter" transform="translate(0.000000, 35.000000)">
                        <path d="M19,9.34372636 C18.5581818,9.54009 18.0847273,9.67427182 17.5861818,9.73427182 C18.0945455,9.42881727 18.4850909,8.94227182 18.6683636,8.36299909 C18.1927273,8.64663545 17.6658182,8.85390818 17.1050909,8.96409 C16.6567273,8.48299909 16.0163636,8.18190818 15.3083636,8.18190818 C13.9490909,8.18190818 12.8461818,9.29136273 12.8461818,10.6604536 C12.8461818,10.8546355 12.868,11.0444536 12.9094545,11.2255445 C10.864,11.1219082 9.04981818,10.1346355 7.83563636,8.63572636 C7.624,9.00118091 7.50181818,9.42663545 7.50181818,9.88154455 C7.50181818,10.7411809 7.93709091,11.5004536 8.59709091,11.9444536 C8.19345455,11.9313627 7.81381818,11.82009 7.48218182,11.6346355 L7.48218182,11.6651809 C7.48218182,12.8662718 8.33090909,13.8688173 9.45672727,14.0957264 C9.25054545,14.1535445 9.03236364,14.1829991 8.80872727,14.1829991 C8.64945455,14.1829991 8.49563636,14.1677264 8.34509091,14.1393627 C8.65818182,15.1233627 9.568,15.84009 10.6447273,15.8597264 C9.80254545,16.5251809 8.74109091,16.92009 7.58690909,16.92009 C7.38836364,16.92009 7.19309091,16.9091809 7,16.8862718 C8.08981818,17.5899082 9.38363636,18.00009 10.7734545,18.00009 C15.3029091,18.00009 17.7781818,14.2233627 17.7781818,10.9484536 C17.7781818,10.8404536 17.776,10.7324536 17.7716364,10.6277264 C18.2527273,10.2775445 18.6694545,9.84118091 19,9.34372636" id="Icon"></path>
                    </g>
                </g>
            </g>
        </g>
    </g>
</svg>